General

Format                         : MPEG-4
Format profile                 : Base Media
Codec ID                       : isom
File size                      : 68.2 MiB
Duration                       : 3mn 46s
Overall bit rate mode          : Variable
Overall bit rate               : 2 526 Kbps
Encoded date                   : UTC 2012-08-16 04:22:49
Tagged date                    : UTC 2012-08-16 04:22:49

Video
ID                             : 1
Format                         : AVC
Format/Info                    : Advanced Video Codec
Format profile                 : High@L3.0
Format settings, CABAC         : Yes
Format settings, ReFrames      : 2 frames
Codec ID                       : avc1
Codec ID/Info                  : Advanced Video Coding
Duration                       : 3mn 46s
Bit rate                       : 2 435 Kbps
Maximum bit rate               : 4 493 Kbps
Width                          : 720 pixels
Height                         : 480 pixels
Display aspect ratio           : 16:9
Original display aspect ratio  : 16:9
Frame rate mode                : Constant
Frame rate                     : 23.976 fps
Standard                       : NTSC
Color space                    : YUV
Chroma subsampling             : 4:2:0
Bit depth                      : 8 bits
Scan type                      : Progressive
Bits/(Pixel*Frame)             : 0.294
Stream size                    : 63.1 MiB (93%)


Audio
ID                             : 2
Format                         : AAC
Format/Info                    : Advanced Audio Codec
Format profile                 : LC
Codec ID                       : 40
Duration                       : 3mn 46s
Bit rate mode                  : Variable
Bit rate                       : 181 Kbps
Maximum bit rate               : 218 Kbps
Channel(s)                     : 2 channels
Channel positions              : Front: L R
Sampling rate                  : 44.1 KHz
Compression mode               : Lossy
Delay relative to video        : -833ms
Stream size                    : 4.89 MiB (7%)